<?xml version="1.0" encoding="utf-8"?>
<!-- Generator: Adobe Illustrator 22.0.1, SVG Export Plug-In . SVG Version: 6.00 Build 0)  -->
<svg version="1.1" id="Layer_1" xmlns="http://www.w3.org/2000/svg" xmlns:xlink="http://www.w3.org/1999/xlink" x="0px" y="0px"
	 viewBox="0 0 561.1 210.5" style="enable-background:new 0 0 561.1 210.5;" xml:space="preserve">
<style type="text/css">
	.st0{fill:#055471;}
	.st1{fill:#F4783D;}
</style>
<g>
	<path class="st0" d="M128.7,26c-5.1,0-10.1,0.5-15,1.4c1.9-0.1,3.8-0.2,5.7-0.2c41.6,0.1,75.2,34,75.1,75.6
		c-0.1,20.1-15.7,45.3-28.6,58.8c3.6,0.5,10.6-0.8,13.8-2.1c12.8-12.8,25.2-36.7,25.3-56.7C205.1,60.6,171,26.2,128.7,26z
		 M118.8,177.9c-1.9,0-3.8-0.1-5.7-0.3c4.8,1,9.8,1.5,15,1.5c19.6,0.1,37.9-7.6,51.5-19.6c-4,1.1-8.9,2.1-13.8,2.1
		C152.9,171.9,136.6,178,118.8,177.9z"/>
	<path class="st0" d="M80.4,37.5c14.3-11.2,32.3-17.9,51.8-17.9c14.2,0.1,27.5,3.6,39.1,9.9c-14.2-9.7-31.4-15.5-49.9-15.5
		C99,13.9,78.5,22.2,62.8,35.8c4.2,0.5,9,1,14.8,1.4C78.4,37.2,79.4,37.3,80.4,37.5z"/>
	<g>
		<path class="st0" d="M48.6,102.6c0.1-22.4,9-42.6,23.4-57.6c-4.7-1-10.5-1.7-15.8-2.9c-14.8,15.8-24,37.1-24,60.4
			c-0.2,49.1,39.5,89,88.6,89.2c18.5,0.1,35.8-5.5,50-15.2c-11.7,6.2-25,9.7-39.2,9.6C85.6,186.1,48.4,148.6,48.6,102.6z"/>
		<path class="st1" d="M169,165.4c-6.9-2.1-13.7-5.8-20.3-10.2c-8-5.2-13.1-10-13.7-10.6c-7-6-13.3-12.2-18.5-17.6
			c-1.9-2.1-12.7-14.3-12.7-14.3c9.4-6.8,16-13.2,19.8-19.4c3.8-6.1,5.7-12.6,5.7-19.4c0-5.3-1.6-10-4.2-14.3
			C116.5,45,99.8,41,91.5,40.5c-64.2-3.5-68.2-14.2-68.2-14.2c0,27.2,57.3,21.6,73.1,31.5c3.4,2.1,5.5,5.8,7.4,9.9
			c1.9,4.1,2.8,9.1,2.8,14.9c0,6.6-1.1,12-3.2,16.2c-2.1,4.3-4.9,7.5-8.2,9.7c-1.8,1.1-3.6,1.9-5.4,2.3c-1.8,0.4-4.6,0.6-8.3,0.6
			c-2.2,0-15.9-1.1-18.2-1.4c0,0,21.1,7.6,26,13.7c1,1.2,3.1,4.1,6.9,8.6c62.2,73.9,115.7,34.3,121.8,29.1c0.7-0.6,1.4-1.3,2-1.9
			l0,0C202.6,172.1,184.3,170.8,169,165.4z"/>
	</g>
</g>
<g>
	<path class="st0" d="M226.9,114.9c2,6.6,3.4,12.3,4.6,18.1h0.5c1.3-5.8,2.9-11.5,4.7-18.1l12-41.2h9.4l-21.3,68.7h-10.4l-21.7-68.7
		h9.8L226.9,114.9z"/>
	<path class="st0" d="M308.8,93.5v31.1c0,6.2,1.7,10.4,6.1,10.4h1.6v7.2c-0.8,0.5-2.1,0.8-3.2,0.8c-6.3,0-10-3.7-11.5-8.3h-0.5
		c-3,3.8-8.1,9.2-18.8,9.2c-11.7,0-18.2-9-18.2-18.3c0-15.2,13.7-22.6,36-22.2v-7.5c0-11.2-5-14.5-13.3-14.5
		c-8.5,0-12.5,5.1-14.4,8.3l-6.6-5.7c2.2-3.3,8.1-11.2,21.2-11.2C300.8,72.7,308.8,79.1,308.8,93.5z M300.5,110.9
		c-15.2-0.6-27.1,3.4-27.1,13.8c0,6.1,4.1,11,11.4,11c7.2,0,12.9-4.7,15.8-9.3V110.9z"/>
	<path class="st0" d="M328.9,91.6c0-9.9,7.8-19.1,21.5-19.1c7.5,0,14.6,2.9,18.4,7.3l-5.8,6.8c-2.9-3.3-8-5.6-12.9-5.6
		c-8.6,0-12.4,4.7-12.4,10.2c0,15.4,31.9,9.2,31.9,32.6c0,9.5-7.3,19.6-22.5,19.6c-10.4,0-18.3-4.3-22.2-8.7l5.6-7.3
		c3.8,4.3,9.8,7.6,17.1,7.6c8.8,0,13.1-5.1,13.1-10.9C360.7,108.7,328.9,114.9,328.9,91.6z"/>
	<path class="st0" d="M385.6,73.7h9v45c0,11.2,4.4,16.7,13.8,16.7c9,0,15.6-5.7,15.9-16.5V73.7h9v68.7h-7.1l-1.7-7.2h-0.5
		c-1.7,2.7-7.4,8.6-18,8.6c-13,0-20.2-7.5-20.5-23.1V73.7z"/>
	<path class="st0" d="M513.7,72.3c12.5,0,19.5,7.7,19.5,22.7v47.4h-8.9V97c0-10.6-4.6-16-12.4-16c-7.9,0-12.9,5.9-14.5,11.5v49.9h-9
		V97.8c0-10.9-4.4-16.8-12.5-16.8c-7.9,0-13,6.3-14.2,12.3v49.1h-9V73.7h6.9l1.9,7.3h0.5c1.7-2.9,6.5-8.7,16.3-8.7
		c9.4,0,14.4,4.7,16.7,10.9h0.5C497.7,77.6,503.9,72.3,513.7,72.3z"/>
</g>
<g>
	<path class="st0" d="M181.6,137.1c-4.2,3.4-10.8,6.2-19.8,6.2c-18,0-27.7-10-27.7-35.6c0-24.9,12.7-35.1,26.8-35.1
		c14.9,0,22.9,10.6,22.9,26.9c0,3.4-0.2,7.5-0.7,11.9h-40.1c0.8,16.9,7.3,23.4,19.9,23.4c6.3,0,11.9-2.7,14.6-5.2L181.6,137.1z
		 M143.2,103.3h31.6c0.1-1.8,0.1-3.3,0.1-4.2c0-11.6-4.6-18.1-14.8-18.1C151.9,81.1,144,86.8,143.2,103.3z"/>
</g>
</svg>
